<svg version="1.1" id="Layer_1" xmlns="http://www.w3.org/2000/svg" xmlns:xlink="http://www.w3.org/1999/xlink" x="0px" y="0px"
	 width="100%" viewBox="0 0 149 144" enable-background="new 0 0 149 144" xml:space="preserve">
<path fill="#FBFAFD" opacity="1.000000" stroke="none" 
	d="
M150.000000,54.000000 
	C150.000000,84.640907 150.000000,114.781822 150.000000,144.922729 
	C149.859238,144.948486 149.718460,144.996811 149.577698,144.996826 
	C100.119957,145.000061 50.662220,145.000000 1.102240,145.000000 
	C1.102240,97.109337 1.102240,49.218380 1.102240,1.163712 
	C50.666225,1.163712 100.333069,1.163712 150.000000,1.163712 
	C150.000000,18.529959 150.000000,36.014980 150.000000,54.000000 
M142.311844,79.734253 
	C142.197052,79.157990 142.082275,78.581726 142.047516,77.141609 
	C142.011307,75.411865 141.975113,73.682129 142.016602,71.023743 
	C141.922119,57.026863 141.827637,43.029984 142.317322,28.735815 
	C140.962082,26.118223 139.606827,23.500629 137.947723,20.319344 
	C137.248932,19.272190 136.550140,18.225037 135.958435,16.501301 
	C135.334564,15.982564 134.710693,15.463826 133.665894,14.689993 
	C133.401016,14.486356 133.192276,14.235923 132.990997,13.259956 
	C132.268387,12.889016 131.545792,12.518075 130.275208,11.968935 
	C129.901276,11.550480 129.527359,11.132026 128.975418,10.059429 
	C124.985870,7.641060 121.269760,4.372288 115.076553,5.946830 
	C87.712151,5.926214 60.347752,5.905598 32.494629,5.373944 
	C28.964108,6.849464 25.433588,8.324984 21.341228,10.094273 
	C20.302233,10.793628 19.263239,11.492983 17.541355,12.076559 
	C17.017290,12.700306 16.493227,13.324053 15.569762,14.486972 
	C13.395456,17.994289 11.221150,21.501608 8.436987,25.397970 
	C8.079821,26.999102 7.722654,28.600231 7.205575,31.100304 
	C7.182890,43.700817 7.160206,56.301327 6.882677,69.748825 
	C6.985693,71.770073 7.088709,73.791313 7.050887,76.763977 
	C7.037062,87.575706 6.870374,98.390541 7.090605,109.197502 
	C7.169910,113.089134 7.822371,117.057106 8.828410,120.826042 
	C12.488651,134.538406 23.746065,142.982086 37.991982,142.988007 
	C62.943176,142.998398 87.902405,143.366928 112.842300,142.835632 
	C125.904236,142.557373 136.253769,134.345245 140.059433,122.539978 
	C143.983185,110.368362 141.393326,97.861046 141.720703,85.504372 
	C141.732483,85.059471 141.323303,84.603432 141.147598,83.464844 
	C141.135269,83.012100 141.122955,82.559357 141.539215,81.697502 
	C141.637039,81.123451 141.734863,80.549400 142.311844,79.734253 
z"/>
<path fill="#E1BFF7" opacity="1.000000" stroke="none" 
	d="
M141.110306,84.152580 
	C141.323303,84.603432 141.732483,85.059471 141.720703,85.504372 
	C141.393326,97.861046 143.983185,110.368362 140.059433,122.539978 
	C136.253769,134.345245 125.904236,142.557373 112.842300,142.835632 
	C87.902405,143.366928 62.943176,142.998398 37.991982,142.988007 
	C23.746065,142.982086 12.488651,134.538406 8.828410,120.826042 
	C7.822371,117.057106 7.169910,113.089134 7.090605,109.197502 
	C6.870374,98.390541 7.037062,87.575706 7.447732,76.254333 
	C8.498593,74.838799 9.299562,74.004684 9.782798,73.015373 
	C12.940505,66.550667 15.259682,59.523113 19.287043,53.665546 
	C30.759335,36.979759 46.820160,26.942963 67.097023,25.034168 
	C86.156807,23.239944 103.382927,28.242565 118.048874,41.194626 
	C127.701050,49.718822 134.509506,59.917191 138.074524,72.251183 
	C138.985245,75.402016 139.430466,78.687401 140.080902,82.239441 
	C140.418274,83.096130 140.764297,83.624352 141.110306,84.152580 
M72.985466,92.982246 
	C75.517998,97.567276 77.422409,93.033646 78.876205,92.140808 
	C81.113670,90.766708 80.043076,85.852104 77.343216,84.003067 
	C75.648514,82.842438 73.638702,81.800415 72.904800,85.615997 
	C72.722084,85.862312 72.481377,86.020226 71.438080,86.085182 
	C67.289078,88.637779 68.647881,90.414566 72.621529,92.045074 
	C72.621529,92.045074 72.938919,92.297279 72.985466,92.982246 
M69.942276,97.237289 
	C67.575325,96.439362 65.208374,95.641434 62.841423,94.843498 
	C62.393978,96.776260 60.928097,99.366234 61.677097,100.526917 
	C64.760330,105.304779 69.128281,108.244675 75.310425,108.009384 
	C81.126305,107.788040 85.374504,105.032310 88.496147,100.542358 
	C90.214027,98.071472 88.726891,95.725037 85.285950,95.869995 
	C82.860161,97.264076 80.434372,98.658157 77.909843,99.347900 
	C75.304771,98.879982 72.699692,98.412064 69.942276,97.237289 
M57.813148,93.712212 
	C60.037769,91.530075 62.680981,89.634254 64.406921,87.111015 
	C69.195152,80.110863 67.294228,72.433289 59.636585,66.172600 
	C54.997688,62.379955 45.005226,63.378380 40.430061,68.091667 
	C35.461327,73.210396 34.378548,81.828148 37.948303,87.843704 
	C41.533787,93.885765 49.032330,96.363640 57.813148,93.712212 
M99.445068,70.154060 
	C94.877274,71.894943 90.100800,73.248375 85.833366,75.546906 
	C83.823746,76.629326 81.659668,79.316200 83.982651,82.267288 
	C86.305336,85.217987 88.508003,83.555176 90.839958,82.001984 
	C97.447449,77.601036 101.714973,77.940331 107.715805,83.116150 
	C110.196274,85.255615 113.823067,84.900360 114.534515,82.148476 
	C114.919281,80.660210 114.491302,77.942230 113.466324,77.287430 
	C109.263138,74.602226 104.689522,72.496864 99.445068,70.154060 
z"/>
<path fill="#4F2EDA" opacity="1.000000" stroke="none" 
	d="
M133.039688,13.938694 
	C133.192276,14.235923 133.401016,14.486356 133.860245,15.134747 
	C134.653519,16.112293 135.252441,16.645084 135.851349,17.177879 
	C136.550140,18.225037 137.248932,19.272190 138.034088,20.961205 
	C139.324692,24.079746 140.528915,26.556423 141.733154,29.033104 
	C141.827637,43.029984 141.922119,57.026863 141.625946,71.413002 
	C140.882721,71.485901 140.317337,71.229988 140.207840,70.844559 
	C131.559631,40.402519 102.116608,20.042864 70.902016,21.984140 
	C44.591061,23.620455 25.560659,36.210266 12.903997,59.023247 
	C11.054688,62.356529 9.063214,65.610939 7.137522,68.901840 
	C7.160206,56.301327 7.182890,43.700817 7.588261,30.553844 
	C8.329579,28.341234 8.688212,26.675079 9.046844,25.008926 
	C11.221150,21.501608 13.395456,17.994289 16.085815,14.225204 
	C17.142660,13.373071 17.683451,12.782704 18.224243,12.192338 
	C19.263239,11.492983 20.302233,10.793628 21.997082,10.005226 
	C26.096407,8.572448 29.539879,7.228715 32.983353,5.884982 
	C60.347752,5.905598 87.712151,5.926214 115.776703,6.197482 
	C120.702385,7.869945 124.927902,9.291756 129.153427,10.713570 
	C129.527359,11.132026 129.901276,11.550480 130.639343,12.362750 
	C131.682205,13.150608 132.360947,13.544650 133.039688,13.938694 
z"/>
<path fill="#A482EB" opacity="1.000000" stroke="none" 
	d="
M7.010099,69.325333 
	C9.063214,65.610939 11.054688,62.356529 12.903997,59.023247 
	C25.560659,36.210266 44.591061,23.620455 70.902016,21.984140 
	C102.116608,20.042864 131.559631,40.402519 140.207840,70.844559 
	C140.317337,71.229988 140.882721,71.485901 141.587097,71.877319 
	C141.975113,73.682129 142.011307,75.411865 141.784607,77.708145 
	C141.625366,78.841568 141.729034,79.408455 141.832703,79.975349 
	C141.734863,80.549400 141.637039,81.123451 141.071915,81.837585 
	C140.432922,81.955437 140.261230,81.933205 140.089539,81.910973 
	C139.430466,78.687401 138.985245,75.402016 138.074524,72.251183 
	C134.509506,59.917191 127.701050,49.718822 118.048874,41.194626 
	C103.382927,28.242565 86.156807,23.239944 67.097023,25.034168 
	C46.820160,26.942963 30.759335,36.979759 19.287043,53.665546 
	C15.259682,59.523113 12.940505,66.550667 9.782798,73.015373 
	C9.299562,74.004684 8.498593,74.838799 7.518151,75.778625 
	C7.088709,73.791313 6.985693,71.770073 7.010099,69.325333 
z"/>
<path fill="#C0B4F1" opacity="1.000000" stroke="none" 
	d="
M129.064423,10.386497 
	C124.927902,9.291756 120.702385,7.869945 116.245438,6.169987 
	C121.269760,4.372288 124.985870,7.641060 129.064423,10.386497 
z"/>
<path fill="#C0B4F1" opacity="1.000000" stroke="none" 
	d="
M32.738991,5.629463 
	C29.539879,7.228715 26.096407,8.572448 22.278000,9.858342 
	C25.433588,8.324984 28.964108,6.849464 32.738991,5.629463 
z"/>
<path fill="#C0B4F1" opacity="1.000000" stroke="none" 
	d="
M142.025238,28.884459 
	C140.528915,26.556423 139.324692,24.079746 138.186020,21.243053 
	C139.606827,23.500629 140.962082,26.118223 142.025238,28.884459 
z"/>
<path fill="#A482EB" opacity="1.000000" stroke="none" 
	d="
M8.741916,25.203449 
	C8.688212,26.675079 8.329579,28.341234 7.668217,30.104374 
	C7.722654,28.600231 8.079821,26.999102 8.741916,25.203449 
z"/>
<path fill="#C0B4F1" opacity="1.000000" stroke="none" 
	d="
M135.904892,16.839588 
	C135.252441,16.645084 134.653519,16.112293 134.070709,15.262295 
	C134.710693,15.463826 135.334564,15.982564 135.904892,16.839588 
z"/>
<path fill="#C0B4F1" opacity="1.000000" stroke="none" 
	d="
M142.072266,79.854797 
	C141.729034,79.408455 141.625366,78.841568 141.744598,78.140076 
	C142.082275,78.581726 142.197052,79.157990 142.072266,79.854797 
z"/>
<path fill="#C0B4F1" opacity="1.000000" stroke="none" 
	d="
M17.882799,12.134449 
	C17.683451,12.782704 17.142660,13.373071 16.285515,13.955618 
	C16.493227,13.324053 17.017290,12.700306 17.882799,12.134449 
z"/>
<path fill="#C0B4F1" opacity="1.000000" stroke="none" 
	d="
M133.015350,13.599325 
	C132.360947,13.544650 131.682205,13.150608 130.913330,12.451850 
	C131.545792,12.518075 132.268387,12.889016 133.015350,13.599325 
z"/>
<path fill="#C0B4F1" opacity="1.000000" stroke="none" 
	d="
M140.080902,82.239441 
	C140.261230,81.933205 140.432922,81.955437 140.857620,82.042145 
	C141.122955,82.559357 141.135269,83.012100 141.128952,83.808716 
	C140.764297,83.624352 140.418274,83.096130 140.080902,82.239441 
z"/>
<path fill="#F4ECF8" opacity="1.000000" stroke="none" 
	d="
M57.496582,93.955490 
	C49.032330,96.363640 41.533787,93.885765 37.948303,87.843704 
	C34.378548,81.828148 35.461327,73.210396 40.430061,68.091667 
	C45.005226,63.378380 54.997688,62.379955 59.636585,66.172600 
	C67.294228,72.433289 69.195152,80.110863 64.406921,87.111015 
	C62.680981,89.634254 60.037769,91.530075 57.496582,93.955490 
M57.598026,88.406349 
	C58.653465,87.138367 59.871704,85.971497 60.733814,84.583435 
	C63.315910,80.426102 62.263344,74.463821 58.560429,71.513008 
	C53.475922,67.461220 48.431107,67.576653 43.753365,71.851807 
	C39.593555,75.653603 38.990417,80.085320 41.997650,84.752289 
	C45.337749,89.935837 48.423615,90.759781 57.598026,88.406349 
z"/>
<path fill="#B58CC2" opacity="1.000000" stroke="none" 
	d="
M99.848648,70.166092 
	C104.689522,72.496864 109.263138,74.602226 113.466324,77.287430 
	C114.491302,77.942230 114.919281,80.660210 114.534515,82.148476 
	C113.823067,84.900360 110.196274,85.255615 107.715805,83.116150 
	C101.714973,77.940331 97.447449,77.601036 90.839958,82.001984 
	C88.508003,83.555176 86.305336,85.217987 83.982651,82.267288 
	C81.659668,79.316200 83.823746,76.629326 85.833366,75.546906 
	C90.100800,73.248375 94.877274,71.894943 99.848648,70.166092 
M89.218147,80.554558 
	C96.555603,75.651489 101.421837,75.644897 107.942024,80.347771 
	C108.805908,80.970863 110.094841,81.004669 111.186928,81.311386 
	C110.902794,80.064423 110.981911,78.540863 110.276588,77.614616 
	C105.015785,70.705902 91.111099,71.095818 86.205666,78.244164 
	C85.725555,78.943779 85.796463,80.021515 85.611610,80.923737 
	C86.631042,80.953133 87.650475,80.982536 89.218147,80.554558 
z"/>
<path fill="#76467D" opacity="1.000000" stroke="none" 
	d="
M78.008575,100.052231 
	C80.434372,98.658157 82.860161,97.264076 85.723297,96.202927 
	C85.859703,98.051773 85.994545,99.871239 85.185257,101.033028 
	C80.792686,107.338737 69.947021,107.650169 65.188942,101.582603 
	C64.264214,100.403381 64.343903,98.436508 63.960297,96.832947 
	C65.337151,97.362587 66.715935,97.887306 68.089989,98.424118 
	C68.698265,98.661766 69.296989,98.923897 70.174973,99.348755 
	C71.467560,99.843422 72.485229,100.164261 73.648895,100.717049 
	C74.523071,100.940361 75.251266,100.931725 76.278992,100.931717 
	C77.055214,100.644302 77.531891,100.348267 78.008575,100.052231 
z"/>
<path fill="#BB94CB" opacity="1.000000" stroke="none" 
	d="
M69.900047,99.174919 
	C69.296989,98.923897 68.698265,98.661766 68.089989,98.424118 
	C66.715935,97.887306 65.337151,97.362587 63.960297,96.832947 
	C64.343903,98.436508 64.264214,100.403381 65.188942,101.582603 
	C69.947021,107.650169 80.792686,107.338737 85.185257,101.033028 
	C85.994545,99.871239 85.859703,98.051773 86.095535,96.199936 
	C88.726891,95.725037 90.214027,98.071472 88.496147,100.542358 
	C85.374504,105.032310 81.126305,107.788040 75.310425,108.009384 
	C69.128281,108.244675 64.760330,105.304779 61.677097,100.526917 
	C60.928097,99.366234 62.393978,96.776260 62.841423,94.843498 
	C65.208374,95.641434 67.575325,96.439362 69.975174,97.899582 
	C69.972069,98.766220 69.936058,98.970566 69.900047,99.174919 
z"/>
<path fill="#815289" opacity="1.000000" stroke="none" 
	d="
M72.182678,86.089722 
	C72.481377,86.020226 72.722084,85.862312 73.363426,85.438675 
	C75.155029,86.597702 76.488014,87.934059 77.820992,89.270409 
	C76.193634,90.279366 74.566277,91.288322 72.938919,92.297279 
	C72.938919,92.297279 72.621529,92.045074 72.377792,91.629532 
	C72.150261,89.505905 72.166473,87.797813 72.182678,86.089722 
z"/>
<path fill="#D1AEE5" opacity="1.000000" stroke="none" 
	d="
M72.962189,92.639763 
	C74.566277,91.288322 76.193634,90.279366 77.820992,89.270409 
	C76.488014,87.934059 75.155029,86.597702 73.463211,85.243164 
	C73.638702,81.800415 75.648514,82.842438 77.343216,84.003067 
	C80.043076,85.852104 81.113670,90.766708 78.876205,92.140808 
	C77.422409,93.033646 75.517998,97.567276 72.962189,92.639763 
z"/>
<path fill="#D1AEE5" opacity="1.000000" stroke="none" 
	d="
M70.174973,99.348755 
	C69.936058,98.970566 69.972069,98.766220 70.051346,98.253006 
	C72.699692,98.412064 75.304771,98.879982 77.959213,99.700066 
	C77.531891,100.348267 77.055214,100.644302 76.046967,100.675674 
	C74.844559,100.435699 74.173729,100.460396 73.502899,100.485092 
	C72.485229,100.164261 71.467560,99.843422 70.174973,99.348755 
z"/>
<path fill="#D1AEE5" opacity="1.000000" stroke="none" 
	d="
M71.810379,86.087448 
	C72.166473,87.797813 72.150261,89.505905 72.193832,91.544418 
	C68.647881,90.414566 67.289078,88.637779 71.810379,86.087448 
z"/>
<path fill="#B9A4B9" opacity="1.000000" stroke="none" 
	d="
M57.242950,88.567215 
	C48.423615,90.759781 45.337749,89.935837 41.997650,84.752289 
	C38.990417,80.085320 39.593555,75.653603 43.753365,71.851807 
	C48.431107,67.576653 53.475922,67.461220 58.560429,71.513008 
	C62.263344,74.463821 63.315910,80.426102 60.733814,84.583435 
	C59.871704,85.971497 58.653465,87.138367 57.242950,88.567215 
M46.170906,86.521393 
	C50.361595,88.789764 54.278645,89.206055 57.701824,85.064537 
	C60.661392,81.483925 60.694584,77.922729 58.055786,74.172020 
	C55.393887,70.388481 51.738129,70.172150 47.895885,71.526405 
	C42.234032,73.522003 41.294060,79.887085 46.170906,86.521393 
z"/>
<path fill="#6D3C73" opacity="1.000000" stroke="none" 
	d="
M88.944031,80.783249 
	C87.650475,80.982536 86.631042,80.953133 85.611603,80.923737 
	C85.796463,80.021515 85.725555,78.943779 86.205666,78.244164 
	C91.111099,71.095818 105.015785,70.705902 110.276588,77.614616 
	C110.981911,78.540863 110.902794,80.064423 111.186920,81.311386 
	C110.094841,81.004669 108.805908,80.970863 107.942024,80.347771 
	C101.421837,75.644897 96.555603,75.651489 88.944031,80.783249 
z"/>
<path fill="#BB94CB" opacity="1.000000" stroke="none" 
	d="
M73.648895,100.717056 
	C74.173729,100.460396 74.844559,100.435699 75.747421,100.667038 
	C75.251266,100.931725 74.523071,100.940361 73.648895,100.717056 
z"/>
<path fill="#562254" opacity="1.000000" stroke="none" 
	d="
M45.880890,86.248672 
	C41.294060,79.887085 42.234032,73.522003 47.895885,71.526405 
	C51.738129,70.172150 55.393887,70.388481 58.055786,74.172020 
	C60.694584,77.922729 60.661392,81.483925 57.701824,85.064537 
	C54.278645,89.206055 50.361595,88.789764 45.880890,86.248672 
z"/>
</svg>