<svg version="1.1" id="Layer_1" xmlns="http://www.w3.org/2000/svg" xmlns:xlink="http://www.w3.org/1999/xlink" x="0px" y="0px"
	 width="100%" viewBox="0 0 645 502" enable-background="new 0 0 645 502" xml:space="preserve">
<path fill="#FEF7F1" opacity="1.000000" stroke="none" 
	d="
M1.000000,130.000000 
	C1.000000,87.009636 1.000000,44.019272 0.999999,1.021683 
	C215.942184,1.014455 430.884369,1.014455 645.913269,1.014455 
	C645.913269,168.237961 645.913269,335.475983 645.913269,502.856995 
	C431.000061,502.856995 216.000046,502.856995 1.000000,502.856995 
	C1.000000,496.598572 1.000000,490.266479 1.251128,483.466614 
	C1.669675,482.998383 1.837093,482.997955 2.392388,483.048279 
	C12.348551,484.953339 21.850964,487.759247 31.501369,488.427277 
	C44.307583,489.313782 57.230118,488.592224 70.100876,488.424072 
	C73.394348,488.381042 76.779099,488.214569 79.952881,487.425201 
	C90.375755,484.832886 100.770912,482.100311 111.084900,479.105408 
	C129.123672,473.867432 145.180145,464.534363 159.930084,453.263916 
	C169.482086,445.965240 178.227859,437.453735 186.517258,428.710449 
	C193.093460,421.774200 199.419830,414.219849 204.085297,405.941376 
	C211.345581,393.058563 217.674164,379.562592 223.281479,365.869415 
	C226.628036,357.697052 227.843811,348.652161 230.365356,340.038788 
	C237.943115,344.030487 245.143845,348.037354 252.409302,351.923157 
	C265.003021,358.658752 278.768677,362.898071 292.676331,363.578552 
	C310.386963,364.445099 328.163055,364.994385 346.013489,360.380341 
	C373.771393,353.205322 397.189697,339.505524 416.387421,318.796692 
	C427.656982,306.640106 436.921326,292.726227 443.065796,277.099884 
	C448.230591,263.964996 452.782013,250.564423 452.938782,236.279114 
	C453.076324,223.742920 453.214935,211.113632 451.891571,198.681015 
	C450.598358,186.531403 446.825256,174.915115 441.615295,163.581573 
	C434.789337,148.732666 426.097443,135.399246 415.013702,123.572952 
	C400.466187,108.050873 383.003998,96.651970 363.314972,88.816360 
	C356.960663,86.287552 350.073425,85.098007 343.115112,83.176849 
	C341.799652,80.406792 340.246307,77.823463 339.911224,75.090767 
	C339.166931,69.020096 336.780029,66.735191 330.731110,66.166878 
	C327.957916,65.906326 324.866791,64.878860 322.695251,63.197620 
	C317.589294,59.244488 315.117706,59.168388 309.916534,62.817722 
	C307.409576,64.576691 304.165039,65.728348 301.112671,66.166245 
	C295.997833,66.900024 293.482819,69.150459 292.927734,74.427345 
	C292.690948,76.678658 291.895538,78.871208 290.899170,81.065872 
	C289.116638,81.061440 287.753571,80.891037 286.466583,81.130142 
	C265.202850,85.080605 245.683334,93.043365 227.918304,105.575424 
	C207.355286,120.081284 192.273026,138.916229 181.624603,161.528290 
	C179.810257,165.381088 177.877075,169.177902 175.698990,172.851349 
	C173.455032,171.153000 171.424881,169.699493 169.580307,168.039688 
	C154.749420,154.694534 137.964783,144.365784 119.472694,137.130020 
	C103.275742,130.792328 86.594276,126.147682 69.012199,124.800156 
	C53.715664,123.627785 38.556702,123.523613 23.424095,125.959320 
	C16.256533,127.113007 9.150380,128.648224 1.762306,130.007599 
	C1.338806,130.003098 1.169403,130.001556 1.000000,130.000000 
M524.152893,308.078644 
	C518.452942,308.336609 512.453247,307.534210 507.107574,309.045441 
	C488.927856,314.185028 479.917206,334.163788 487.704834,351.787628 
	C493.303253,364.457214 509.314392,372.732056 521.993530,369.681641 
	C538.685486,365.665833 547.425598,355.441528 547.721619,338.103424 
	C547.947937,324.850433 540.486633,313.445587 524.152893,308.078644 
M555.841919,261.507812 
	C554.200195,261.747559 552.554810,261.964478 550.917419,262.230652 
	C537.064575,264.482727 525.436035,270.677338 517.095886,282.132904 
	C515.024719,284.977722 514.138733,288.685455 512.708008,291.996521 
	C513.191895,292.442474 513.675720,292.888458 514.159607,293.334412 
	C538.891479,286.373657 563.623352,279.412872 588.854065,272.311707 
	C580.633362,264.949493 569.884827,261.455353 555.841919,261.507812 
M587.092651,209.144592 
	C590.189636,220.291122 595.866272,224.723083 606.131531,224.009048 
	C614.216797,223.446671 622.406128,214.789932 621.841003,207.402969 
	C621.079102,197.443970 613.443726,189.946976 604.157532,190.039963 
	C594.486023,190.136826 587.567017,197.534042 587.092651,209.144592 
z"/>
<path fill="#FCF3ED" opacity="1.000000" stroke="none" 
	d="
M2.004512,482.997559 
	C1.837093,482.997955 1.669675,482.998383 1.251128,482.999390 
	C1.000000,365.644653 1.000000,248.289307 1.000000,130.466980 
	C1.169403,130.001556 1.338806,130.003098 1.756941,130.475037 
	C2.005286,248.296158 2.004899,365.646851 2.004512,482.997559 
z"/>
<path fill="#FAE8DC" opacity="1.000000" stroke="none" 
	d="
M2.392388,483.048279 
	C2.004899,365.646851 2.005286,248.296158 2.011038,130.478027 
	C9.150380,128.648224 16.256533,127.113007 23.424095,125.959320 
	C38.556702,123.523613 53.715664,123.627785 69.012199,124.800156 
	C86.594276,126.147682 103.275742,130.792328 119.472694,137.130020 
	C137.964783,144.365784 154.749420,154.694534 169.580307,168.039688 
	C171.424881,169.699493 173.455032,171.153000 175.697922,173.257446 
	C175.954681,174.476700 176.042389,175.180573 175.851883,175.798691 
	C170.400635,193.485214 167.784042,211.378006 168.729065,230.066055 
	C169.479141,244.898575 172.685562,259.026703 177.672028,272.654266 
	C184.933975,292.500549 196.566895,309.855682 212.012177,324.425476 
	C217.779221,329.865631 224.002319,334.822327 230.017456,339.999481 
	C227.843811,348.652161 226.628036,357.697052 223.281479,365.869415 
	C217.674164,379.562592 211.345581,393.058563 204.085297,405.941376 
	C199.419830,414.219849 193.093460,421.774200 186.517258,428.710449 
	C178.227859,437.453735 169.482086,445.965240 159.930084,453.263916 
	C145.180145,464.534363 129.123672,473.867432 111.084900,479.105408 
	C100.770912,482.100311 90.375755,484.832886 79.952881,487.425201 
	C76.779099,488.214569 73.394348,488.381042 70.100876,488.424072 
	C57.230118,488.592224 44.307583,489.313782 31.501369,488.427277 
	C21.850964,487.759247 12.348551,484.953339 2.392388,483.048279 
z"/>
<path fill="#F6F6F6" opacity="1.000000" stroke="none" 
	d="
M230.365356,340.038788 
	C224.002319,334.822327 217.779221,329.865631 212.012177,324.425476 
	C196.566895,309.855682 184.933975,292.500549 177.672028,272.654266 
	C172.685562,259.026703 169.479141,244.898575 168.729065,230.066055 
	C167.784042,211.378006 170.400635,193.485214 175.851883,175.798691 
	C176.042389,175.180573 175.954681,174.476700 175.997711,173.406693 
	C177.877075,169.177902 179.810257,165.381088 181.624603,161.528290 
	C192.273026,138.916229 207.355286,120.081284 227.918304,105.575424 
	C245.683334,93.043365 265.202850,85.080605 286.466583,81.130142 
	C287.753571,80.891037 289.116638,81.061440 290.714203,81.373962 
	C284.497803,88.119232 284.517822,90.770264 290.366119,97.816383 
	C291.710419,99.435982 292.001709,101.929558 292.355316,104.014908 
	C281.280914,104.354584 271.495392,107.917938 261.907684,112.160889 
	C248.403091,118.137215 236.288147,126.440056 226.001938,136.823975 
	C216.574127,146.341339 208.946426,157.349731 202.918365,169.627060 
	C195.046539,185.659546 191.438309,202.483765 191.135895,219.993591 
	C190.781601,240.505554 195.163864,260.077148 205.090576,278.317413 
	C221.702560,308.841766 246.909225,328.566650 280.121216,337.881012 
	C294.033020,341.782593 308.323853,342.508759 322.948669,341.233643 
	C344.399475,339.363342 363.532196,332.205078 380.784546,319.725372 
	C394.097595,310.095276 405.336731,298.436768 413.889282,284.272461 
	C423.939514,267.627686 429.955872,249.639633 430.879791,230.266281 
	C431.729889,212.442108 429.811310,194.954620 423.027954,178.061005 
	C416.601227,162.055603 407.345459,148.052475 395.305206,135.994217 
	C384.338654,125.011307 371.509918,116.365234 356.995789,110.648972 
	C351.511322,108.488960 345.567322,107.495705 339.809143,105.557327 
	C340.460907,102.867859 340.532318,100.098549 341.917480,98.401680 
	C347.601257,91.439072 347.748474,91.559242 343.429962,83.295807 
	C350.073425,85.098007 356.960663,86.287552 363.314972,88.816360 
	C383.003998,96.651970 400.466187,108.050873 415.013702,123.572952 
	C426.097443,135.399246 434.789337,148.732666 441.615295,163.581573 
	C446.825256,174.915115 450.598358,186.531403 451.891571,198.681015 
	C453.214935,211.113632 453.076324,223.742920 452.938782,236.279114 
	C452.782013,250.564423 448.230591,263.964996 443.065796,277.099884 
	C436.921326,292.726227 427.656982,306.640106 416.387421,318.796692 
	C397.189697,339.505524 373.771393,353.205322 346.013489,360.380341 
	C328.163055,364.994385 310.386963,364.445099 292.676331,363.578552 
	C278.768677,362.898071 265.003021,358.658752 252.409302,351.923157 
	C245.143845,348.037354 237.943115,344.030487 230.365356,340.038788 
z"/>
<path fill="#F7D3BD" opacity="1.000000" stroke="none" 
	d="
M524.559692,308.138306 
	C540.486633,313.445587 547.947937,324.850433 547.721619,338.103424 
	C547.425598,355.441528 538.685486,365.665833 521.993530,369.681641 
	C509.314392,372.732056 493.303253,364.457214 487.704834,351.787628 
	C479.917206,334.163788 488.927856,314.185028 507.107574,309.045441 
	C512.453247,307.534210 518.452942,308.336609 524.559692,308.138306 
M526.880005,334.724609 
	C522.511047,326.763458 513.156433,325.598389 508.848846,332.478943 
	C506.121399,336.835541 506.402008,341.397461 509.614471,344.925446 
	C512.561829,348.162292 517.884338,349.176880 522.034973,347.293060 
	C526.162415,345.419800 527.869385,341.365753 526.880005,334.724609 
z"/>
<path fill="#7BC69C" opacity="1.000000" stroke="none" 
	d="
M556.285767,261.483215 
	C569.884827,261.455353 580.633362,264.949493 588.854065,272.311707 
	C563.623352,279.412872 538.891479,286.373657 514.159607,293.334412 
	C513.675720,292.888458 513.191895,292.442474 512.708008,291.996521 
	C514.138733,288.685455 515.024719,284.977722 517.095886,282.132904 
	C525.436035,270.677338 537.064575,264.482727 550.917419,262.230652 
	C552.554810,261.964478 554.200195,261.747559 556.285767,261.483215 
z"/>
<path fill="#E8C480" opacity="1.000000" stroke="none" 
	d="
M292.777618,104.020927 
	C292.001709,101.929558 291.710419,99.435982 290.366119,97.816383 
	C284.517822,90.770264 284.497803,88.119232 291.169067,81.398544 
	C291.895538,78.871208 292.690948,76.678658 292.927734,74.427345 
	C293.482819,69.150459 295.997833,66.900024 301.112671,66.166245 
	C304.165039,65.728348 307.409576,64.576691 309.916534,62.817722 
	C315.117706,59.168388 317.589294,59.244488 322.695251,63.197620 
	C324.866791,64.878860 327.957916,65.906326 330.731110,66.166878 
	C336.780029,66.735191 339.166931,69.020096 339.911224,75.090767 
	C340.246307,77.823463 341.799652,80.406792 343.115112,83.176849 
	C347.748474,91.559242 347.601257,91.439072 341.917480,98.401680 
	C340.532318,100.098549 340.460907,102.867859 339.735474,105.912582 
	C338.911316,111.843735 335.838287,113.733910 330.725372,113.998047 
	C328.076447,114.134895 325.061432,115.504013 323.009186,117.252380 
	C317.667969,121.802704 315.183563,121.844299 309.759186,117.167458 
	C307.896698,115.561615 305.270447,114.189278 302.877045,113.968452 
	C294.168884,113.165031 293.401581,112.638840 292.777618,104.020927 
M336.858765,94.781303 
	C337.438782,82.245979 333.439331,74.533958 324.483124,71.011948 
	C315.599396,67.518440 306.316528,69.414261 299.597351,77.857979 
	C294.556854,84.192169 293.707367,91.351791 296.942474,98.448181 
	C300.195160,105.583199 305.762756,110.621384 314.169220,110.967316 
	C325.159454,111.419586 331.472107,106.965729 336.858765,94.781303 
z"/>
<path fill="#F3C8C9" opacity="1.000000" stroke="none" 
	d="
M587.077026,208.731201 
	C587.567017,197.534042 594.486023,190.136826 604.157532,190.039963 
	C613.443726,189.946976 621.079102,197.443970 621.841003,207.402969 
	C622.406128,214.789932 614.216797,223.446671 606.131531,224.009048 
	C595.866272,224.723083 590.189636,220.291122 587.077026,208.731201 
z"/>
<path fill="#FFFFFF" opacity="1.000000" stroke="none" 
	d="
M292.355316,104.014908 
	C293.401581,112.638840 294.168884,113.165031 302.877045,113.968452 
	C305.270447,114.189278 307.896698,115.561615 309.759186,117.167458 
	C315.183563,121.844299 317.667969,121.802704 323.009186,117.252380 
	C325.061432,115.504013 328.076447,114.134895 330.725372,113.998047 
	C335.838287,113.733910 338.911316,111.843735 339.759155,106.325851 
	C345.567322,107.495705 351.511322,108.488960 356.995789,110.648972 
	C371.509918,116.365234 384.338654,125.011307 395.305206,135.994217 
	C407.345459,148.052475 416.601227,162.055603 423.027954,178.061005 
	C429.811310,194.954620 431.729889,212.442108 430.879791,230.266281 
	C429.955872,249.639633 423.939514,267.627686 413.889282,284.272461 
	C405.336731,298.436768 394.097595,310.095276 380.784546,319.725372 
	C363.532196,332.205078 344.399475,339.363342 322.948669,341.233643 
	C308.323853,342.508759 294.033020,341.782593 280.121216,337.881012 
	C246.909225,328.566650 221.702560,308.841766 205.090576,278.317413 
	C195.163864,260.077148 190.781601,240.505554 191.135895,219.993591 
	C191.438309,202.483765 195.046539,185.659546 202.918365,169.627060 
	C208.946426,157.349731 216.574127,146.341339 226.001938,136.823975 
	C236.288147,126.440056 248.403091,118.137215 261.907684,112.160889 
	C271.495392,107.917938 281.280914,104.354584 292.355316,104.014908 
M267.004944,252.975479 
	C267.003113,257.629608 266.889893,262.286926 267.022766,266.937225 
	C267.296204,276.506958 277.675171,284.741486 286.775940,281.981842 
	C291.415924,280.574799 295.517853,277.393341 300.258240,274.797516 
	C303.510620,278.451874 307.886444,282.970123 313.954559,281.636688 
	C319.240387,280.475098 324.072327,277.247986 329.336823,274.826904 
	C334.474945,282.261902 341.790314,283.970367 349.102325,281.686615 
	C355.924805,279.555725 360.087708,272.342133 360.090424,262.931610 
	C360.091278,259.939667 360.074402,256.947723 360.396423,253.198395 
	C360.510864,252.886322 360.728821,252.572937 360.724945,252.262344 
	C360.473267,232.160995 361.018524,212.003922 359.644196,191.978699 
	C358.752808,178.991165 352.001526,167.664047 341.025696,160.244431 
	C324.084534,148.792252 306.198181,148.315536 288.527557,158.848648 
	C275.285339,166.742065 268.114410,179.252640 267.281403,194.139816 
	C266.204407,213.387192 267.045746,232.741898 267.004944,252.975479 
z"/>
<path fill="#EB6D5E" opacity="1.000000" stroke="none" 
	d="
M526.948975,335.091492 
	C527.869385,341.365753 526.162415,345.419800 522.034973,347.293060 
	C517.884338,349.176880 512.561829,348.162292 509.614471,344.925446 
	C506.402008,341.397461 506.121399,336.835541 508.848846,332.478943 
	C513.156433,325.598389 522.511047,326.763458 526.948975,335.091492 
z"/>
<path fill="#D6904E" opacity="1.000000" stroke="none" 
	d="
M336.734741,95.177795 
	C331.472107,106.965729 325.159454,111.419586 314.169220,110.967316 
	C305.762756,110.621384 300.195160,105.583199 296.942474,98.448181 
	C293.707367,91.351791 294.556854,84.192169 299.597351,77.857979 
	C306.316528,69.414261 315.599396,67.518440 324.483124,71.011948 
	C333.439331,74.533958 337.438782,82.245979 336.734741,95.177795 
M318.106323,87.285698 
	C317.953339,86.047966 317.800385,84.810234 317.541595,82.716385 
	C315.558350,84.086617 314.196930,85.027206 313.598846,85.440430 
	C314.591644,89.888741 315.371918,93.384941 316.152222,96.881142 
	C316.827728,96.850487 317.503235,96.819832 318.178741,96.789177 
	C318.178741,93.883568 318.178741,90.977959 318.106323,87.285698 
z"/>
<path fill="#DBC0F3" opacity="1.000000" stroke="none" 
	d="
M267.061096,252.050400 
	C267.045746,232.741898 266.204407,213.387192 267.281403,194.139816 
	C268.114410,179.252640 275.285339,166.742065 288.527557,158.848648 
	C306.198181,148.315536 324.084534,148.792252 341.025696,160.244431 
	C352.001526,167.664047 358.752808,178.991165 359.644196,191.978699 
	C361.018524,212.003922 360.473267,232.160995 360.724945,252.262344 
	C360.728821,252.572937 360.510864,252.886322 359.883545,253.640625 
	C358.880066,254.494934 358.253448,254.818497 357.919159,255.332275 
	C351.886047,264.604401 341.888977,266.905914 333.166077,260.288879 
	C329.483002,257.494965 326.477814,257.557068 323.321747,259.929657 
	C316.691681,264.913818 310.126953,263.623932 303.843903,259.778595 
	C299.934448,257.385895 297.053925,257.621002 293.612518,260.536041 
	C289.105164,264.353973 283.369385,265.740753 278.328430,262.719849 
	C273.996918,260.124115 270.774139,255.678192 267.061096,252.050400 
M332.442200,200.247971 
	C337.015900,198.536530 340.027161,195.284348 338.821777,190.408463 
	C337.993103,187.056427 336.060516,183.186447 333.387024,181.269012 
	C329.495178,178.477768 325.187225,180.198425 321.833435,183.668533 
	C318.692566,186.918350 318.078522,190.638077 319.902496,194.640656 
	C322.080658,199.420685 326.016388,201.284973 332.442200,200.247971 
M289.872345,196.371643 
	C292.766357,199.647095 295.993103,202.101105 300.728821,200.565598 
	C306.806122,198.595154 309.806580,192.158279 307.488617,186.135834 
	C305.720337,181.541595 299.416595,179.040970 294.539795,180.999176 
	C288.553192,183.403015 286.392578,189.550995 289.872345,196.371643 
M307.920593,206.691574 
	C311.558197,208.932159 315.244720,209.085739 318.419678,206.115173 
	C319.723450,204.895355 320.199005,202.790359 321.051331,201.088028 
	C320.567963,200.550140 320.084595,200.012253 319.601257,199.474380 
	C316.055206,207.208450 310.942535,205.716034 305.396027,201.668411 
	C305.336182,202.209473 305.276337,202.750534 305.216492,203.291595 
	C305.937347,204.277786 306.658173,205.263977 307.920593,206.691574 
z"/>
<path fill="#CDAFE1" opacity="1.000000" stroke="none" 
	d="
M267.033020,252.512939 
	C270.774139,255.678192 273.996918,260.124115 278.328430,262.719849 
	C283.369385,265.740753 289.105164,264.353973 293.612518,260.536041 
	C297.053925,257.621002 299.934448,257.385895 303.843903,259.778595 
	C310.126953,263.623932 316.691681,264.913818 323.321747,259.929657 
	C326.477814,257.557068 329.483002,257.494965 333.166077,260.288879 
	C341.888977,266.905914 351.886047,264.604401 357.919159,255.332275 
	C358.253448,254.818497 358.880066,254.494934 359.718140,254.019318 
	C360.074402,256.947723 360.091278,259.939667 360.090424,262.931610 
	C360.087708,272.342133 355.924805,279.555725 349.102325,281.686615 
	C341.790314,283.970367 334.474945,282.261902 329.336823,274.826904 
	C324.072327,277.247986 319.240387,280.475098 313.954559,281.636688 
	C307.886444,282.970123 303.510620,278.451874 300.258240,274.797516 
	C295.517853,277.393341 291.415924,280.574799 286.775940,281.981842 
	C277.675171,284.741486 267.296204,276.506958 267.022766,266.937225 
	C266.889893,262.286926 267.003113,257.629608 267.033020,252.512939 
z"/>
<path fill="#F7D3BD" opacity="1.000000" stroke="none" 
	d="
M318.142517,87.679024 
	C318.178741,90.977959 318.178741,93.883568 318.178741,96.789177 
	C317.503235,96.819832 316.827728,96.850487 316.152222,96.881142 
	C315.371918,93.384941 314.591644,89.888741 313.598846,85.440430 
	C314.196930,85.027206 315.558350,84.086617 317.541595,82.716385 
	C317.800385,84.810234 317.953339,86.047966 318.142517,87.679024 
z"/>
<path fill="#F0EBF2" opacity="1.000000" stroke="none" 
	d="
M332.083801,200.415192 
	C326.016388,201.284973 322.080658,199.420685 319.902496,194.640656 
	C318.078522,190.638077 318.692566,186.918350 321.833435,183.668533 
	C325.187225,180.198425 329.495178,178.477768 333.387024,181.269012 
	C336.060516,183.186447 337.993103,187.056427 338.821777,190.408463 
	C340.027161,195.284348 337.015900,198.536530 332.083801,200.415192 
M323.052734,190.517944 
	C323.495209,194.973389 326.164948,197.507797 330.333740,196.331802 
	C332.383881,195.753448 334.978180,192.565430 334.980560,190.555603 
	C334.982910,188.584656 332.363647,185.593979 330.263611,184.861908 
	C326.594452,183.582825 324.004791,185.899094 323.052734,190.517944 
z"/>
<path fill="#F0EBF2" opacity="1.000000" stroke="none" 
	d="
M289.605530,196.085175 
	C286.392578,189.550995 288.553192,183.403015 294.539795,180.999176 
	C299.416595,179.040970 305.720337,181.541595 307.488617,186.135834 
	C309.806580,192.158279 306.806122,198.595154 300.728821,200.565598 
	C295.993103,202.101105 292.766357,199.647095 289.605530,196.085175 
M299.139130,184.624237 
	C297.119659,185.445938 294.555847,185.757553 293.201721,187.202713 
	C290.870026,189.691116 291.940857,194.290298 294.860291,195.811447 
	C298.005981,197.450455 301.020233,197.117645 303.146942,193.980240 
	C305.414551,190.634995 304.159088,187.275574 299.139130,184.624237 
z"/>
<path fill="#734D7E" opacity="1.000000" stroke="none" 
	d="
M307.649780,206.470871 
	C306.658173,205.263977 305.937347,204.277786 305.216492,203.291595 
	C305.276337,202.750534 305.336182,202.209473 305.396027,201.668411 
	C310.942535,205.716034 316.055206,207.208450 319.601257,199.474380 
	C320.084595,200.012253 320.567963,200.550140 321.051331,201.088028 
	C320.199005,202.790359 319.723450,204.895355 318.419678,206.115173 
	C315.244720,209.085739 311.558197,208.932159 307.649780,206.470871 
z"/>
<path fill="#512955" opacity="1.000000" stroke="none" 
	d="
M323.085693,190.135406 
	C324.004791,185.899094 326.594452,183.582825 330.263611,184.861908 
	C332.363647,185.593979 334.982910,188.584656 334.980560,190.555603 
	C334.978180,192.565430 332.383881,195.753448 330.333740,196.331802 
	C326.164948,197.507797 323.495209,194.973389 323.085693,190.135406 
z"/>
<path fill="#512955" opacity="1.000000" stroke="none" 
	d="
M299.509460,184.694046 
	C304.159088,187.275574 305.414551,190.634995 303.146942,193.980240 
	C301.020233,197.117645 298.005981,197.450455 294.860291,195.811447 
	C291.940857,194.290298 290.870026,189.691116 293.201721,187.202713 
	C294.555847,185.757553 297.119659,185.445938 299.509460,184.694046 
z"/>
</svg>